<svg xmlns="http://www.w3.org/2000/svg" viewBox="0 0 263 71.84"><defs><style>.a{fill:#ed6d0b;}.b{fill:#000;}.c{fill:#fff;isolation:isolate;}</style></defs><title>Princeton University</title><path class="a" d="M14.969,59.024A70.978,70.978,0,0,0,28.145,71.84a71.14,71.14,0,0,0,13.2-12.782L28.135,46.214Z"/><path class="a" d="M8.824,49.838,28.149,31.277,47.512,49.89a68.705,68.705,0,0,0,7.159-18.661c.066-.317.123-.63.189-.947H1.453A68.77,68.77,0,0,0,8.824,49.838Z"/><path class="a" d="M8.813,49.838a69.873,69.873,0,0,0,6.159,9.186L28.137,46.214,41.346,59.057A69.445,69.445,0,0,0,47.5,49.89L28.137,31.277Z"/><path class="b" d="M28.138,45.865,15,58.651a69.872,69.872,0,0,1-5.87-8.768l19.012-18.26,19.05,18.312a69.406,69.406,0,0,1-5.866,8.75Z"/><path class="b" d="M28.137,31.97,46.874,49.982a69.178,69.178,0,0,1-5.578,8.33L28.486,45.855l-.349-.339-.349.339L15.021,58.278A69.614,69.614,0,0,1,9.439,49.93l18.7-17.96m0-.693L8.813,49.838a69.873,69.873,0,0,0,6.159,9.186L28.137,46.214,41.346,59.057A69.445,69.445,0,0,0,47.5,49.89L28.137,31.277Z"/><path class="b" d="M56.065,10.489a24.6,24.6,0,0,1-7.187,1.066A24.116,24.116,0,0,1,28.16,0,24.13,24.13,0,0,1,7.437,11.555,24.7,24.7,0,0,1,.26,10.494a67.638,67.638,0,0,0,1.18,19.8H54.847A68,68,0,0,0,56.065,10.489Z"/><path class="c" d="M41.314,18.658V16.389H39.926v-1.6l-1.454-.408h-.1V13.02s-.5.6-2.8.6c-2.179,0-3.459-.706-5.192-.706a2.364,2.364,0,0,0-2.179.952v.549h-.057v-.549a2.381,2.381,0,0,0-2.179-.952c-1.734,0-3.013.711-5.193.711-2.3,0-2.7-.6-2.7-.6v1.431h-.095l-1.578.332v1.6H15v2.269h1.393V22.33H15V24.6h1.393v2.823a33.885,33.885,0,0,0,4.5.365c2.554,0,4.027-.369,5.685-.4V28.1a3.848,3.848,0,0,0,1.559.332,4.25,4.25,0,0,0,1.616-.332V27.39c1.653.033,3.127.4,5.695.4a33.844,33.844,0,0,0,4.487-.365V24.6h1.388V22.33H39.926V18.658Z"/><path class="b" d="M38.588,14.23l.007-1.739-.422.445s-.522.521-2.627.521L32.7,13.078l-2.345-.327a2.784,2.784,0,0,0-2.208.843,2.8,2.8,0,0,0-2.208-.843l-2.343.332-2.85.379c-2.07,0-2.5-.5-2.506-.5l-.429-.526L17.8,13.1V14.3l-1.689.355V27.7l.2.028a34.016,34.016,0,0,0,4.534.37,51.763,51.763,0,0,0,5.443-.374v.592l.133.071a4.1,4.1,0,0,0,1.668.355,4.459,4.459,0,0,0,1.717-.355l.14-.066v-.6a51.806,51.806,0,0,0,5.457.374,34.05,34.05,0,0,0,4.528-.37l.2-.028V14.665Zm-10.2-.166a2.142,2.142,0,0,1,1.966-.829l2.24.317,2.956.389a5.883,5.883,0,0,0,2.565-.417V25.858a7.157,7.157,0,0,1-2.565.379L32.7,25.858l-2.345-.327a2.94,2.94,0,0,0-1.966.621Zm-10.1-.516a5.525,5.525,0,0,0,2.459.4l2.954-.388,2.239-.322a2.156,2.156,0,0,1,1.966.829V26.157a2.957,2.957,0,0,0-1.985-.625l-2.345.332-2.829.374c-2.07,0-2.5-.5-2.506-.5S18.278,14.372,18.283,13.547Zm21.37,13.733a33.042,33.042,0,0,1-4.247.332,53.519,53.519,0,0,1-5.668-.4l-.272-.038v.829a4.067,4.067,0,0,1-1.374.251,3.815,3.815,0,0,1-1.317-.246v-.834l-.273.038a53.514,53.514,0,0,1-5.654.4,33.085,33.085,0,0,1-4.254-.332V15.044c.223-.042.883-.185,1.206-.251V25.877c.118.256.625.843,2.942.843l2.933-.384,2.241-.322a2.183,2.183,0,0,1,1.987.829l.069-.038h.346l.066.038a2.142,2.142,0,0,1,1.966-.829l2.24.318,2.956.388c2.349,0,2.935-.616,2.994-.687l.045-11.3c.308.085.872.242,1.068.3Z"/><path class="b" d="M21.718,15.72a.416.416,0,0,0-.37.242l-.777,1.729a.148.148,0,0,1-.062.028c-.024,0-.052-.028-.071-.081s-.114-.3-.317-.777L19.87,16.3c-.09-.209-.161-.346-.185-.389a.374.374,0,0,0-.327-.189.08.08,0,0,1-.014-.052.112.112,0,0,1,.009-.052h.128c.147,0,.27.009.379.009.128,0,.341-.014.483-.014h.085c.014,0,.019.033.019.048a.127.127,0,0,1-.01.057c-.095.009-.308,0-.308.138a.332.332,0,0,0,.019.114l.512,1.213.426-1a.628.628,0,0,0,.057-.265c0-.114-.081-.166-.294-.189a.178.178,0,0,1-.014-.048.232.232,0,0,1,.014-.062h.062c.095,0,.189.014.4.014.038,0,.185-.009.256-.009h.147c.009.019.019.028.019.047A.135.135,0,0,1,21.718,15.72Z"/><path class="b" d="M23.883,17.657c-.621,0-.957-.014-1.042-.014-.066,0-.218,0-.294,0s-.284.014-.5.014l-.123,0a.085.085,0,0,1-.009-.047.258.258,0,0,1,0-.057.823.823,0,0,0,.313-.066.594.594,0,0,0,.066-.313c0-.095,0-.2,0-.308,0-.156,0-.346,0-.573v-.322c0-.223-.114-.223-.346-.251a.239.239,0,0,1-.009-.052c0-.014,0-.048.019-.052h.114c.076,0,.279,0,.668,0,.355,0,.7,0,.777,0,.047,0,.185,0,.213,0,.047,0,.066,0,.066.047l.028.464c-.028.014-.033.019-.057.019a.149.149,0,0,1-.047,0,.919.919,0,0,0-.308-.355.322.322,0,0,0-.18-.052c-.028,0-.1,0-.275,0-.142,0-.213,0-.232,0s-.019,0-.028.081c0,.047-.009.142-.009.412V16.5h.071a.993.993,0,0,0,.232-.024.392.392,0,0,0,.208-.147.921.921,0,0,0,.048-.171.125.125,0,0,1,.066-.014.1.1,0,0,1,.052.014c0,.085-.019.242-.019.441,0,.1.009.318.009.408a.074.074,0,0,1-.057.014.237.237,0,0,1-.057,0c-.019-.175-.047-.294-.194-.355a.552.552,0,0,0-.227-.043c-.043,0-.095,0-.138.009v.535a.665.665,0,0,0,.028.242.2.2,0,0,0,.123.114,1,1,0,0,0,.19.014h.294a.578.578,0,0,0,.223-.033,1.123,1.123,0,0,0,.327-.441.159.159,0,0,1,.062-.01.165.165,0,0,1,.062.014v.54C23.992,17.652,23.959,17.657,23.883,17.657Z"/><path class="b" d="M26.347,16.255c-.014,0-.033,0-.057,0a1.286,1.286,0,0,0-.152-.3.485.485,0,0,0-.379-.2c-.047,0-.161,0-.2,0l0,.905c0,.142,0,.308,0,.62,0,.237.109.237.355.27a.113.113,0,0,1,.019.057.108.108,0,0,1-.014.052h-.09c-.142,0-.426-.009-.516-.009-.062,0-.374.014-.521.014a.075.075,0,0,1-.019-.057.123.123,0,0,1,.014-.052c.327-.024.36-.085.37-.189.009-.066.009-.336.009-.611v-.748a1.273,1.273,0,0,0-.019-.251,1.409,1.409,0,0,0-.318.024.81.81,0,0,0-.412.45.191.191,0,0,1-.052,0,.055.055,0,0,1-.047-.019v-.526c0-.047,0-.062.061-.062s.123,0,.223,0c.071,0,.37,0,.744,0,.493,0,.857-.014.952-.014.047,0,.081,0,.1.019a.4.4,0,0,1,0,.076v.526A.056.056,0,0,1,26.347,16.255Z"/><path class="b" d="M21.618,19.462c-.019,0-.033,0-.062,0a1,1,0,0,0-.152-.3.476.476,0,0,0-.379-.2c-.047,0-.161,0-.2,0l0,.9c0,.142,0,.308,0,.621,0,.237.114.237.36.27a.1.1,0,0,1,.014.057.1.1,0,0,1-.009.052H21.1c-.147,0-.431-.009-.516-.009-.062,0-.374.014-.526.014a.1.1,0,0,1-.014-.057.252.252,0,0,1,.009-.052c.327-.024.36-.085.374-.189,0-.066,0-.336,0-.611V19.2a1.3,1.3,0,0,0-.014-.251,1.451,1.451,0,0,0-.322.024.805.805,0,0,0-.407.45.246.246,0,0,1-.057,0,.061.061,0,0,1-.047-.019v-.526c0-.048.009-.062.062-.062s.123,0,.223,0c.076,0,.374,0,.749,0,.488,0,.857-.014.947-.014.052,0,.085,0,.1.019s0,.048,0,.076v.526A.06.06,0,0,1,21.618,19.462Z"/><path class="b" d="M23.959,20.865c-.616,0-.957-.014-1.037-.014s-.218,0-.3,0-.284.014-.5.014l-.123,0a.093.093,0,0,1-.014-.048A.13.13,0,0,1,22,20.751a.763.763,0,0,0,.308-.066c.038-.042.057-.128.066-.313,0-.095.009-.2.009-.308,0-.156,0-.346,0-.573,0-.161,0-.256,0-.322,0-.223-.109-.223-.341-.251a.124.124,0,0,1-.014-.052c0-.014.009-.047.024-.052h.109c.081,0,.28,0,.668,0,.36,0,.7,0,.782,0l.208,0c.052,0,.071,0,.071.048l.024.464a.092.092,0,0,1-.057.019.174.174,0,0,1-.047,0A.851.851,0,0,0,23.49,19a.309.309,0,0,0-.175-.052c-.028,0-.1,0-.279,0-.138,0-.213,0-.228,0s-.024,0-.033.081c0,.047,0,.142,0,.412V19.7h.066a.948.948,0,0,0,.232-.024.4.4,0,0,0,.213-.147.894.894,0,0,0,.043-.171.151.151,0,0,1,.066-.014.1.1,0,0,1,.057.014c0,.085-.024.242-.024.441,0,.1.014.317.014.407a.079.079,0,0,1-.057.014.265.265,0,0,1-.062,0c-.019-.175-.042-.294-.194-.355a.545.545,0,0,0-.223-.043,1.31,1.31,0,0,0-.138.009v.535a.84.84,0,0,0,.024.242c.019.033.066.1.123.114a1.075,1.075,0,0,0,.189.014h.3a.557.557,0,0,0,.218-.033,1.087,1.087,0,0,0,.332-.441.151.151,0,0,1,.062-.009.142.142,0,0,1,.057.014v.54C24.068,20.86,24.035,20.865,23.959,20.865Z"/><path class="b" d="M25.4,20.912a1.158,1.158,0,0,1-.474-.123.225.225,0,0,0-.076-.019.425.425,0,0,0-.152.081.13.13,0,0,1-.118-.062c0-.043.038-.171.038-.251,0-.047-.014-.279-.019-.332a.11.11,0,0,1,.09-.043h.033a4.29,4.29,0,0,0,.189.4.636.636,0,0,0,.455.213.442.442,0,0,0,.332-.1.287.287,0,0,0,.114-.246.263.263,0,0,0-.057-.185.494.494,0,0,0-.213-.152c-.09-.043-.408-.123-.521-.185a.823.823,0,0,1-.284-.2.626.626,0,0,1-.118-.374.584.584,0,0,1,.63-.573.756.756,0,0,1,.488.142,1.4,1.4,0,0,1,.119-.119.11.11,0,0,1,.109.057,2.237,2.237,0,0,0-.033.279c0,.052.033.27.033.3a.2.2,0,0,1-.081.028.14.14,0,0,1-.038-.009c-.057-.1-.109-.265-.171-.355a.462.462,0,0,0-.408-.175.336.336,0,0,0-.37.3c0,.171.138.251.251.3.085.033.189.071.308.109a2.793,2.793,0,0,1,.327.123.561.561,0,0,1,.336.54A.663.663,0,0,1,25.4,20.912Z"/><path class="b" d="M22.443,24.077c-.62,0-.957-.014-1.042-.014-.066,0-.218,0-.294,0s-.284.014-.5.014l-.123,0a.086.086,0,0,1-.009-.048.244.244,0,0,1,0-.057.83.83,0,0,0,.313-.066.6.6,0,0,0,.066-.313c0-.095,0-.2,0-.308,0-.156,0-.346,0-.573v-.322c0-.223-.114-.223-.346-.251a.252.252,0,0,1-.009-.052c0-.014,0-.048.019-.052h.114c.076,0,.28,0,.668,0,.355,0,.7,0,.777,0,.048,0,.185,0,.213,0,.048,0,.066,0,.066.048l.028.464c-.028.014-.033.019-.057.019a.143.143,0,0,1-.047,0,.92.92,0,0,0-.308-.355.323.323,0,0,0-.18-.052c-.028,0-.1,0-.275,0-.142,0-.213,0-.232,0s-.019,0-.029.081c0,.047-.009.142-.009.412v.265h.071a.993.993,0,0,0,.232-.024.394.394,0,0,0,.209-.147.9.9,0,0,0,.047-.171.126.126,0,0,1,.066-.014.1.1,0,0,1,.052.014c0,.085-.019.242-.019.441,0,.1.009.317.009.408a.074.074,0,0,1-.057.014.238.238,0,0,1-.057,0c-.019-.175-.047-.294-.194-.355a.553.553,0,0,0-.228-.043,1.305,1.305,0,0,0-.137.009v.535a.665.665,0,0,0,.028.242.2.2,0,0,0,.123.114,1.028,1.028,0,0,0,.189.014h.294a.584.584,0,0,0,.223-.033,1.127,1.127,0,0,0,.327-.441.165.165,0,0,1,.123,0v.54C22.552,24.072,22.519,24.077,22.443,24.077Z"/><path class="b" d="M25.428,22.13c-.208.01-.389.123-.389.455l0,1.052c0,.043.019.341.019.455a.217.217,0,0,1-.085.033.139.139,0,0,1-.052-.033l-1.445-1.554.014.318,0,.573c0,.043.009.152.019.232a.26.26,0,0,0,.1.218.529.529,0,0,0,.275.09.091.091,0,0,1,.014.047.117.117,0,0,1-.019.052h-.156c-.133,0-.237,0-.374,0-.09,0-.218.009-.308.009h-.066a.181.181,0,0,1,0-.047.133.133,0,0,1,.009-.052.5.5,0,0,0,.327-.142.682.682,0,0,0,.033-.246V22.85c0-.118,0-.18-.009-.294a.358.358,0,0,0-.071-.223.739.739,0,0,0-.1-.109,1.177,1.177,0,0,0-.232-.1.157.157,0,0,1-.014-.047.108.108,0,0,1,.014-.052h.052c.043,0,.265.009.436.009h.1a.2.2,0,0,1,.062.043l1.071,1.17c.081.09.185.208.242.284v-.843c0-.114,0-.194-.009-.237a.563.563,0,0,0-.062-.218c-.033-.052-.232-.081-.336-.1a.139.139,0,0,1-.009-.061.16.16,0,0,1,0-.043h.062c.1,0,.261.014.36.014.246,0,.322-.009.445-.009h.081a.112.112,0,0,1,.009.052A.093.093,0,0,1,25.428,22.13Z"/><path class="b" d="M32.179,15.71c-.2.009-.389.123-.389.455v1.052c0,.042.014.341.014.455a.2.2,0,0,1-.081.033c-.014,0-.028-.014-.057-.033l-1.445-1.554.019.318,0,.573c0,.043.009.152.014.232a.288.288,0,0,0,.1.218.556.556,0,0,0,.275.09.091.091,0,0,1,.014.047.173.173,0,0,1-.014.052h-.161c-.128,0-.232,0-.374,0-.09,0-.213.009-.3.009h-.066a.2.2,0,0,1-.009-.047.1.1,0,0,1,.014-.052.5.5,0,0,0,.322-.142.589.589,0,0,0,.033-.246V16.43c0-.118,0-.18,0-.294a.392.392,0,0,0-.071-.223.918.918,0,0,0-.1-.109,1.069,1.069,0,0,0-.232-.1.376.376,0,0,1-.009-.047.2.2,0,0,1,.009-.052h.057c.038,0,.261.009.431.009h.1a.31.31,0,0,1,.066.043l1.071,1.17c.081.09.185.208.242.284v-.843a2.026,2.026,0,0,0-.014-.237.493.493,0,0,0-.062-.218c-.033-.052-.232-.081-.332-.1a.146.146,0,0,1-.014-.062.087.087,0,0,1,.009-.043H31.3c.1,0,.261.014.36.014.242,0,.322-.01.445-.01h.076a.126.126,0,0,1,.014.052A.107.107,0,0,1,32.179,15.71Z"/><path class="b" d="M34.306,17.4a1.018,1.018,0,0,1-1.445.014,1.134,1.134,0,0,1,0-1.554,1.019,1.019,0,0,1,.72-.308,1.1,1.1,0,0,1,.54.152,1.073,1.073,0,0,1,.5.91A1.135,1.135,0,0,1,34.306,17.4Zm-.332-1.5a.478.478,0,0,0-.407-.213.437.437,0,0,0-.379.213,1.183,1.183,0,0,0-.189.725,1.231,1.231,0,0,0,.18.715.453.453,0,0,0,.4.227.475.475,0,0,0,.445-.279,1.328,1.328,0,0,0,.133-.659A1.193,1.193,0,0,0,33.974,15.9Z"/><path class="b" d="M37.215,15.72a.414.414,0,0,0-.365.242l-.777,1.729a.149.149,0,0,1-.062.028c-.024,0-.057-.028-.071-.081s-.114-.3-.322-.777l-.246-.564c-.09-.209-.161-.346-.185-.389a.379.379,0,0,0-.327-.189.065.065,0,0,1-.019-.052.079.079,0,0,1,.014-.052h.128c.142,0,.265.009.374.009.128,0,.341-.014.488-.014h.081c.019,0,.024.033.024.048a.13.13,0,0,1-.009.057c-.1.009-.308,0-.308.138a.249.249,0,0,0,.019.114l.507,1.213.431-1a.685.685,0,0,0,.052-.265c0-.114-.081-.166-.294-.189a.174.174,0,0,1-.009-.048.247.247,0,0,1,.009-.062h.062c.095,0,.19.014.408.014.033,0,.185-.009.256-.009h.147a.091.091,0,0,1,0,.1Z"/><path class="b" d="M31.511,19.462c-.019,0-.033,0-.062,0a1,1,0,0,0-.152-.3.475.475,0,0,0-.379-.2c-.048,0-.161,0-.2,0l0,.9c0,.142,0,.308,0,.621,0,.237.114.237.36.27a.1.1,0,0,1,.014.057.1.1,0,0,1-.009.052h-.09c-.147,0-.431-.009-.516-.009-.062,0-.374.014-.526.014a.1.1,0,0,1-.014-.057.236.236,0,0,1,.009-.052c.327-.024.36-.085.374-.189,0-.066,0-.336,0-.611V19.2a1.317,1.317,0,0,0-.014-.251,1.453,1.453,0,0,0-.322.024.805.805,0,0,0-.407.45.245.245,0,0,1-.057,0,.061.061,0,0,1-.047-.019v-.526c0-.048.009-.062.062-.062s.123,0,.223,0c.076,0,.374,0,.749,0,.488,0,.857-.014.947-.014.052,0,.085,0,.1.019s0,.048,0,.076v.526A.06.06,0,0,1,31.511,19.462Z"/><path class="b" d="M33.965,20.865H33.8c-.1,0-.223-.014-.346-.014-.194,0-.441.014-.535.014a.077.077,0,0,1-.014-.052.165.165,0,0,1,.009-.048c.2-.009.279-.042.279-.123a.7.7,0,0,0-.062-.265c-.062-.152-.095-.218-.109-.256-.009-.014-.014-.024-.057-.024h-.645a1.414,1.414,0,0,0-.152.393.451.451,0,0,0-.014.118c0,.066.062.142.289.147a.1.1,0,0,1,.014.057.174.174,0,0,1,0,.047H32.4c-.152,0-.194-.009-.355-.009-.1,0-.355.009-.441.009a.135.135,0,0,1-.009-.043.122.122,0,0,1,.009-.052.441.441,0,0,0,.294-.152,3.254,3.254,0,0,0,.261-.53c.114-.275.251-.621.313-.763.085-.18.114-.237.142-.3.043-.09.09-.18.109-.213a.126.126,0,0,1,.081-.038.117.117,0,0,1,.09.043.579.579,0,0,1,.047.1c.119.284.213.535.36.886.076.175.114.289.194.474.057.114.09.2.147.308.076.156.2.156.322.189,0,.014.019.028.019.047S33.974,20.846,33.965,20.865ZM32.671,19.24h0c-.043.081-.119.256-.147.332-.109.265-.147.355-.166.393h.611C32.918,19.841,32.761,19.467,32.671,19.24Z"/><path class="b" d="M37.129,20.865l-.829-.009h-.227a.146.146,0,0,1-.014-.052.065.065,0,0,1,.019-.052,1.064,1.064,0,0,0,.2-.019c.085-.038.118-.123.118-.246V19.012h0l-.436.957c-.047.1-.1.218-.152.332a4.29,4.29,0,0,0-.18.464.061.061,0,0,1-.066.038c-.028,0-.047-.009-.062-.057-.057-.123-.095-.2-.114-.256l-.682-1.5h-.014v.384l.014.957c0,.294.152.431.384.431a.162.162,0,0,1,.019.047.123.123,0,0,1-.014.052c-.014,0-.062,0-.1,0s-.18-.014-.4-.014c-.062,0-.189,0-.289,0h-.137a.2.2,0,0,1-.01-.052.236.236,0,0,1,.01-.043,1.065,1.065,0,0,0,.3-.1c.043-.043.081-.128.081-.332V19.273c0-.166-.024-.232-.1-.289a1.017,1.017,0,0,0-.27-.052.143.143,0,0,1-.014-.057.165.165,0,0,1,.014-.057c.081,0,.223.009.365.009h.5a.123.123,0,0,1,.043.052l.611,1.383.109-.275c.095-.223.232-.559.426-.919.043-.081.095-.185.123-.237l.777-.014a.117.117,0,0,1,.019.052.108.108,0,0,1-.014.052c-.085.014-.232.014-.3.133-.024.038-.038.076-.038.242v.99c0,.379.095.417.138.445a.736.736,0,0,0,.208.028.108.108,0,0,1,.014.052C37.144,20.841,37.134,20.846,37.129,20.865Z"/><path class="b" d="M31.463,22.675c-.019,0-.033,0-.062,0a1,1,0,0,0-.152-.3.476.476,0,0,0-.379-.2c-.047,0-.161,0-.2,0l0,.905c0,.142,0,.308,0,.62,0,.237.114.237.36.27a.1.1,0,0,1,.014.057.1.1,0,0,1-.009.052h-.09c-.147,0-.431-.009-.516-.009-.062,0-.374.014-.526.014a.1.1,0,0,1-.014-.057.252.252,0,0,1,.009-.052c.327-.024.36-.085.374-.189,0-.066,0-.336,0-.611v-.749a1.3,1.3,0,0,0-.014-.251,1.451,1.451,0,0,0-.322.024.807.807,0,0,0-.408.45.243.243,0,0,1-.057,0,.061.061,0,0,1-.047-.019V22.1c0-.048.009-.062.062-.062s.123,0,.223,0c.076,0,.374,0,.749,0,.488,0,.857-.014.947-.014.052,0,.085,0,.1.019s0,.048,0,.076v.526A.061.061,0,0,1,31.463,22.675Z"/><path class="b" d="M34.007,22.139a.414.414,0,0,0-.365.242l-.777,1.729a.148.148,0,0,1-.062.028c-.024,0-.057-.028-.071-.081s-.114-.3-.322-.777l-.246-.564c-.09-.208-.161-.346-.185-.388a.38.38,0,0,0-.327-.189.066.066,0,0,1-.019-.052.08.08,0,0,1,.014-.052h.128c.142,0,.265.009.374.009.128,0,.341-.014.488-.014h.081c.019,0,.024.033.024.048a.13.13,0,0,1-.009.057c-.1.009-.308,0-.308.137a.25.25,0,0,0,.019.114l.507,1.213.431-1a.687.687,0,0,0,.052-.265c0-.114-.081-.166-.294-.189a.165.165,0,0,1-.009-.048.236.236,0,0,1,.009-.062H33.2c.095,0,.189.014.407.014.033,0,.185-.009.256-.009h.147a.091.091,0,0,1,0,.1Z"/><path class="b" d="M37.172,24.077l-.824-.009h-.232a.121.121,0,0,1-.009-.052.063.063,0,0,1,.014-.052,1.09,1.09,0,0,0,.208-.019c.081-.038.114-.123.114-.246V22.5s0-.218,0-.279h-.009l-.431.957c-.052.1-.1.218-.156.332-.095.223-.152.374-.18.464-.009.038-.042.038-.066.038s-.043-.009-.062-.057c-.052-.123-.09-.2-.109-.256l-.687-1.5h-.014v.384l.014.957c0,.294.152.431.388.431a.127.127,0,0,1,.014.047.111.111,0,0,1-.009.052c-.019,0-.062,0-.109,0-.028,0-.175-.014-.393-.014-.066,0-.194,0-.289,0h-.137a.108.108,0,0,1-.014-.052.11.11,0,0,1,.014-.043,1.108,1.108,0,0,0,.3-.1.488.488,0,0,0,.076-.332l0-.483,0-.569c0-.166-.019-.232-.1-.289a1.028,1.028,0,0,0-.265-.052.1.1,0,0,1-.019-.057.115.115,0,0,1,.019-.057c.076,0,.223.009.36.009h.5a.115.115,0,0,1,.038.052l.611,1.383.114-.275a9.222,9.222,0,0,1,.426-.919c.038-.081.095-.185.123-.237l.772-.014c.009.019.024.033.024.052a.117.117,0,0,1-.019.052c-.081.014-.227.014-.3.133-.024.038-.043.076-.043.242v.99c0,.379.095.417.142.445a.666.666,0,0,0,.2.028.08.08,0,0,1,.019.052C37.191,24.053,37.182,24.058,37.172,24.077Z"/><path class="b" d="M262.576,11.778a.83.83,0,0,0-.078-.37h-.606c-1.324,0-2.168.052-4.551.052-.82,0-2.037-.052-2.326-.052h-.687c-.081.052-.106.346-.106.45a.7.7,0,0,0,.13.45,11.108,11.108,0,0,1,2.724.767,5.149,5.149,0,0,1,.77,2.7c.024.393.05.791.05,1.876v5.529a10.617,10.617,0,0,1-.05,1.137c-.452-.5-1.085-1.454-2.144-2.644l-8.833-9.788a1.727,1.727,0,0,0-.4-.341c-.213,0-.583-.028-.791-.028-1.7,0-4.761-.076-5.212-.076a.972.972,0,0,0-.106.365,4.4,4.4,0,0,0,.078.507,3.628,3.628,0,0,1,1.985,1,8.894,8.894,0,0,1,1.4,1.668,2.3,2.3,0,0,1,.107.843c0,1.374-.081,3.307-.081,5.155v5.373a11.707,11.707,0,0,1-.156,2.009,5.5,5.5,0,0,1-2.776,1.346,1.537,1.537,0,0,0-.1.479c0,.081.024.346.076.369h.5c.53,0,1.748-.081,2.539-.081,1.165,0,1.957.081,3.042.081h1.587c.1-.024.133-.346.133-.45a1.215,1.215,0,0,0-.081-.422,5.088,5.088,0,0,1-3.174-1.639,15.056,15.056,0,0,1-.341-3.283c0-.843-.028-2-.028-3.567,0-2.089.028-3.913.055-4.837.159.185.343.422.476.578l12.218,13.73a1.535,1.535,0,0,0,.739.156.633.633,0,0,0,.317-.052,3.048,3.048,0,0,0,.237-1.189c0-.767-.026-1.564-.026-1.957V16.591c0-3.307,1.561-4.231,3.385-4.311a1.126,1.126,0,0,0,.1-.5m-30.3,8.409c0,3.994-1.111,7.514-2.618,8.755a4.287,4.287,0,0,1-2.8.952,3.964,3.964,0,0,1-3.515-1.772,14.076,14.076,0,0,1-1.561-6.874c0-3.681.95-6.562,2.644-7.964a4.214,4.214,0,0,1,2.75-1.028,4.409,4.409,0,0,1,3.6,1.824c1,1.374,1.507,3.359,1.507,6.107m4.785.5a8.867,8.867,0,0,0-4.707-8.225,10.224,10.224,0,0,0-5.024-1.35,10.768,10.768,0,0,0-8.914,4.922,10.1,10.1,0,0,0-1.53,5.339,9.86,9.86,0,0,0,3.781,7.751,9.924,9.924,0,0,0,6.031,1.9,10.948,10.948,0,0,0,4.018-.763,9.525,9.525,0,0,0,3.676-2.516,10.21,10.21,0,0,0,2.67-7.059m-23.245-3.33v-5.4c0-.4-.156-.5-.554-.5-.794,0-4.97.1-9.2.1-3.281,0-6.005-.052-7.485-.052h-1.959c-.341,0-.448.081-.448.45v5.051a.766.766,0,0,0,.424.109,2.018,2.018,0,0,0,.58-.057c1.189-2.4,2.3-3.7,3.7-4.416.791-.076,2.35-.1,2.774-.1.026.289.054,1.217.078,2.326.028,1.9.028,2.724.028,7.22,0,3.89-.028,5.633-.081,6.055-.1.739.028,1.3-3.146,1.431a1.507,1.507,0,0,0-.081.606,2.108,2.108,0,0,0,.028.422H199.5c.981,0,3.281-.1,4.235-.1.765,0,3.226.081,4.837.081h.739a1.327,1.327,0,0,0,.081-.554.986.986,0,0,0-.1-.479,5.481,5.481,0,0,1-2.724-.5,8.076,8.076,0,0,1-.239-1.985c-.026-2.852-.054-3.937-.054-5.842,0-2.459.028-4.126.028-8.7.369,0,1.217-.024,2.009,0a5.181,5.181,0,0,1,3.148,2.009,13.318,13.318,0,0,1,1.4,2.885,1.345,1.345,0,0,0,.45.052,1.423,1.423,0,0,0,.5-.1m-22.793,8.594a5.821,5.821,0,0,0-.028-.767.59.59,0,0,0-.4-.081,2.224,2.224,0,0,0-.583.052A10.1,10.1,0,0,1,187.1,29.2a4.031,4.031,0,0,1-1.985.294h-2.165a9.737,9.737,0,0,1-1.746-.133c-.4-.081-.82-.716-1-1.137a2.775,2.775,0,0,1-.294-1.668V20.77h.981a4.166,4.166,0,0,1,1.611.369,2.444,2.444,0,0,1,1.191,1.113,9.105,9.105,0,0,1,.448,2.194,1.886,1.886,0,0,0,.692.1.936.936,0,0,0,.526-.133c0-.715-.159-2.644-.159-3.7,0-1.322.185-3.146.263-4.093a1.066,1.066,0,0,0-.526-.109,1.929,1.929,0,0,0-.687.081c-.081.37-.372,1.478-.426,1.559a3.206,3.206,0,0,1-1.8,1.379,7.117,7.117,0,0,1-1.535.208h-.554V17.278c0-2.539.052-3.359.078-3.837.026-.313.078-.659.106-.9a10.929,10.929,0,0,1,1.587-.052c1.53,0,2.248.024,2.485.024a3.022,3.022,0,0,1,1.694.53,11.219,11.219,0,0,1,2.537,3.279,2.111,2.111,0,0,0,.557.052c.159,0,.185-.052.4-.156,0-1.616-.109-3.7-.161-4.363-.028-.265-.078-.346-.606-.346-.213,0-1.217-.052-2.274-.052-1.507,0-2.118.028-4.42.028-1.241,0-3.807.024-4.892.024-1.585,0-2.935-.052-3.622-.052h-.9a.857.857,0,0,0-.13.422,1.187,1.187,0,0,0,.13.531,13.428,13.428,0,0,1,1.933.289,2.174,2.174,0,0,1,.95,1.72c.054.559.081,2.089.081,3.307v5.448c0,1.109-.026,2.724-.055,3.383a7.646,7.646,0,0,1-.578,2.516,6.99,6.99,0,0,1-2.383.393,1.6,1.6,0,0,0-.133.583,1.022,1.022,0,0,0,.133.478h.872c.848,0,3.968-.081,4.683-.081.661,0,1.931.052,3.463.052.846,0,3.333.161,8.675.161a2.25,2.25,0,0,0,.713-.057.8.8,0,0,0,.107-.422c.054-.531.054-2.089.054-4.231m-22.371.924a.882.882,0,0,0-.9-.635c-.055,0-.135.028-.185.028-1.59,2.25-3.335,3.094-5.318,3.094a5.793,5.793,0,0,1-5.342-3.492,14.5,14.5,0,0,1-.82-4.814,11.673,11.673,0,0,1,.793-4.629c1.163-3.065,2.855-4.017,4.92-4.017a5.419,5.419,0,0,1,4.231,2.378,11.871,11.871,0,0,1,1.346,3.2,2.824,2.824,0,0,0,.583.076,1.286,1.286,0,0,0,.635-.237c-.024-.289-.289-2.326-.289-2.961,0-.791.211-2.089.211-2.592a2.108,2.108,0,0,0-1.03-.289,5.182,5.182,0,0,0-.9,1.085,8.691,8.691,0,0,0-5.87-1.881,9.021,9.021,0,0,0-6.64,2.62,10.041,10.041,0,0,0-2.828,7.457,9.671,9.671,0,0,0,3.729,7.907,10.538,10.538,0,0,0,6.161,1.772c3.226,0,5.581-1.218,6.77-2.828a5.538,5.538,0,0,0,.744-1.246m-20.588-15.1a.865.865,0,0,0-.081-.37h-.611c-1.322,0-2.165.052-4.548.052-.82,0-2.037-.052-2.326-.052h-.687c-.081.052-.109.346-.109.45a.685.685,0,0,0,.137.45,11.224,11.224,0,0,1,2.724.767,5.2,5.2,0,0,1,.763,2.7c.028.393.057.791.057,1.876v5.529a9.044,9.044,0,0,1-.057,1.137c-.445-.5-1.085-1.454-2.141-2.644l-8.821-9.788a1.751,1.751,0,0,0-.4-.341c-.211,0-.583-.028-.791-.028-1.7,0-4.761-.076-5.212-.076a.966.966,0,0,0-.1.365,4.368,4.368,0,0,0,.076.507,3.621,3.621,0,0,1,1.985,1,8.747,8.747,0,0,1,1.4,1.668,2.3,2.3,0,0,1,.106.843c0,1.374-.078,3.307-.078,5.155v5.373a11.615,11.615,0,0,1-.161,2.009,5.491,5.491,0,0,1-2.776,1.346,1.609,1.609,0,0,0-.1.479c0,.081.024.346.078.369h.5c.528,0,1.746-.081,2.539-.081,1.163,0,1.954.081,3.039.081h1.579c.1-.024.131-.346.131-.45a1.236,1.236,0,0,0-.079-.422,5.079,5.079,0,0,1-3.164-1.639,15.19,15.19,0,0,1-.343-3.283c0-.843-.028-2-.028-3.567,0-2.089.028-3.913.055-4.837.159.185.343.422.476.578L143.3,30.662a1.541,1.541,0,0,0,.739.156.624.624,0,0,0,.317-.052,3.048,3.048,0,0,0,.237-1.189c0-.767-.029-1.564-.029-1.957V16.591c0-3.307,1.564-4.231,3.387-4.311a1.132,1.132,0,0,0,.109-.5M121.912,30.1a1.773,1.773,0,0,0-.078-.526,19.7,19.7,0,0,1-1.957-.237,4.156,4.156,0,0,1-.9-2.037c-.026-1.27-.055-3.89-.055-6.349v-6.5a2.106,2.106,0,0,1,.479-1.431,4.548,4.548,0,0,1,2.355-.687,1.657,1.657,0,0,0,.078-.5.783.783,0,0,0-.133-.422h-.767c-1.111,0-3.7.133-4.6.133-.554,0-3.146-.081-4.309-.1h-.58a.63.63,0,0,0-.133.445,3.236,3.236,0,0,0,.052.5,5.548,5.548,0,0,1,2.063.374A2.917,2.917,0,0,1,114.3,15c.024.5.05,1.587.076,4.023.029,1.322.055,3.169.055,4.7,0,.767-.055,2.487-.081,3.411a4.527,4.527,0,0,1-.367,1.587c-.317.265-.637.739-2.568.872a2.044,2.044,0,0,0-.081.559c0,.208.055.313.055.445h.45c1.059,0,3.7-.133,5.076-.133.4,0,3.146.081,4.02.081h.874a1.064,1.064,0,0,0,.1-.45M100.7,16.3c0,1.639-1.111,3.515-2.4,3.833a8.861,8.861,0,0,1-2.17.213,5.968,5.968,0,0,1-.981-.057l-.026-2.245V13.18a.841.841,0,0,1,.159-.583,2.639,2.639,0,0,1,1.113-.156c2.061,0,2.961.18,3.7,1.426A4.71,4.71,0,0,1,100.7,16.3m7.668,13.829a1.29,1.29,0,0,0-.133-.554,4.045,4.045,0,0,1-1.743-.346,5.345,5.345,0,0,1-.45-.663,28.673,28.673,0,0,0-1.137-3.037,9.994,9.994,0,0,0-1.957-3.15,8.429,8.429,0,0,0-1.985-.872c-.422-.156-.765-.289-1.083-.422a8.257,8.257,0,0,1,1.083-.156c1.959-.242,2.407-.583,2.909-.981a4.166,4.166,0,0,0,1.639-3.44,5.082,5.082,0,0,0-3.3-4.813,12.977,12.977,0,0,0-3.172-.289c-1.985,0-4.761.185-6.083.185-.4,0-2.7-.052-3.624-.052-.4,0-1.4-.052-1.559-.052a1.519,1.519,0,0,0-.132.5,2.942,2.942,0,0,0,.052.474c.45.052,1.27.156,1.694.237a3.125,3.125,0,0,1,1.109,1.431,67.131,67.131,0,0,1,.159,6.742c0,2.7.029,5.818-.1,6.827a2.014,2.014,0,0,1-1.085,1.767,13.666,13.666,0,0,1-1.507.185,1.291,1.291,0,0,0-.133.531,1.638,1.638,0,0,0,.1.422c.374,0,4.42-.076,5.263-.076,1.691,0,3.122.076,4.629.076a1.1,1.1,0,0,0,.1-.4,1.648,1.648,0,0,0-.1-.554c-.53-.052-1.189-.208-1.48-.265a1.975,1.975,0,0,1-1.14-1.876L95.178,21.4a5.523,5.523,0,0,1,.687-.028,2.7,2.7,0,0,1,1.4.422,5.116,5.116,0,0,1,2.092,1.933,16.091,16.091,0,0,1,1.665,5.685c.078.554.289,1.033.793,1.085.211.028,1.613.081,2.618.081h3.783a.732.732,0,0,0,.156-.45M79.655,16.43a4.332,4.332,0,0,1-1.348,3.307,4.3,4.3,0,0,1-2.753.715,8.661,8.661,0,0,1-1.137-.052c-.211-.029-.346-.052-.346-.19l.028-7.746a12.088,12.088,0,0,1,1.535-.133c1.8,0,2.909.45,3.437,1.563a5.627,5.627,0,0,1,.583,2.535m4.731.109a5.059,5.059,0,0,0-2.829-4.6,13.076,13.076,0,0,0-4.733-.611c-2.037,0-5.212.161-6.609.161-.981,0-2.461-.109-3.281-.109a.966.966,0,0,0-.135.422,1.274,1.274,0,0,0,.081.531c.5.161,1.322.289,1.852.426a2.258,2.258,0,0,1,.713,1.507c.078.924.133,2.089.133,4.1,0,5.581-.026,8.514-.107,9.148a2.237,2.237,0,0,1-1.507,1.876,14.8,14.8,0,0,1-1.533.265,2.805,2.805,0,0,0-.055.554.744.744,0,0,0,.078.374c.846,0,3.333-.109,4.285-.109,2.355,0,4.761.109,5.737.109h.663a.758.758,0,0,0,.081-.422,1.284,1.284,0,0,0-.054-.479,4.3,4.3,0,0,1-2.485-.848,2.247,2.247,0,0,1-.531-1.559l-.081-5.818c1.587.1,3.281.156,4.207.156a9.925,9.925,0,0,0,3.065-.474,4.845,4.845,0,0,0,3.042-4.6"/><path class="b" d="M263,41.277c0-.161-.1-.213-.159-.318-1.085,0-2.511.081-3.068.081-1.348,0-2.987-.109-3.7-.109-.081.161-.107.185-.107.318a.935.935,0,0,0,.055.317c.767.156,1.876.346,2.089.716a1.909,1.909,0,0,1,.239,1.028,2.579,2.579,0,0,1-.161.981c-.237.659-.739,1.691-1.452,3.146-1.217,2.459-1.985,3.994-2.409,4.6-.687-1.161-2.22-4.226-2.589-5.022l-1.483-3.226a2.446,2.446,0,0,1-.1-.716,1.762,1.762,0,0,1,.1-.687c.239-.474,1.059-.526,2.17-.663a1.155,1.155,0,0,0,.078-.393c0-.185-.078-.133-.159-.265h-.474c-1.774,0-1.246.081-4.288.081-1.293,0-2.855-.081-3.065-.081-.106.185-.161.213-.161.4a.566.566,0,0,0,.109.317c1.77.422,2.3.739,2.485,1.085l4.629,9.068a10.456,10.456,0,0,1,.846,1.985,14.71,14.71,0,0,1,.213,3.17,2.255,2.255,0,0,1-.848,2.042,12.683,12.683,0,0,1-2.115.341.627.627,0,0,0-.135.369,1.117,1.117,0,0,0,.081.318c1.35,0,2.753-.028,3.544-.028.556,0,1.4.028,2.963.057.9.024,1.585.052,2.061.052a.784.784,0,0,0,.135-.346.58.58,0,0,0-.109-.341,6.329,6.329,0,0,1-2.3-.53,2.029,2.029,0,0,1-.689-1.691l-.211-3.97a1.457,1.457,0,0,1,.107-.63,3.977,3.977,0,0,1,.286-.744l4.074-8.064a5.468,5.468,0,0,1,1.694-1.772,7.415,7.415,0,0,1,1.72-.531.97.97,0,0,0,.1-.341m-21.364,5.448V41.594c0-.4-.161-.5-.557-.5-.793,0-4.444.1-8.675.1-3.281,0-5.474-.052-6.957-.052h-1.954c-.343,0-.452.076-.452.45v4.785a.467.467,0,0,0,.317.1.685.685,0,0,0,.32-.052c1.03-2.3,1.559-3.515,3.333-4.415.791-.081,3.567-.1,3.991-.1.026.289.055,1.213.081,2.326.026,1.9.026,2.933.026,7.434,0,3.885-.026,5.893-.081,6.315-.1.744.028,1.3-3.146,1.431a.843.843,0,0,0-.081.45,1.22,1.22,0,0,0,.028.317h1.03c.978,0,2.272-.109,3.226-.109.765,0,2.222.081,3.835.081h.739a.7.7,0,0,0,.081-.393.608.608,0,0,0-.106-.374,5.439,5.439,0,0,1-2.724-.5,8.07,8.07,0,0,1-.239-1.98c-.024-2.857-.052-4.207-.052-6.112,0-2.459.028-4.335.028-8.911.37,0,2.326-.024,3.122,0a4.763,4.763,0,0,1,2.985,2.009,8.481,8.481,0,0,1,1.189,2.885,1.055,1.055,0,0,0,.4.052.5.5,0,0,0,.294-.1M219.658,59.787a.85.85,0,0,0-.081-.37c-.393-.028-1.478-.133-1.957-.237a4.18,4.18,0,0,1-.9-2.037c-.026-1.27-.055-4.15-.055-6.614V43.816a2.122,2.122,0,0,1,.476-1.431A4.511,4.511,0,0,1,219.5,41.7a.78.78,0,0,0,.081-.341.453.453,0,0,0-.131-.318h-.765c-1.113,0-2.7.128-3.6.128-.554,0-2.141-.076-3.3-.1h-.583a.379.379,0,0,0-.13.341,1.819,1.819,0,0,0,.052.346,5.705,5.705,0,0,1,2.063.37,2.932,2.932,0,0,1,.874,2.25c.026.5.05,1.852.076,4.283.028,1.322.054,3.122.054,4.652,0,.772-.054,2.753-.081,3.676a4.5,4.5,0,0,1-.367,1.587c-.32.265-.637.739-2.568.876a1.058,1.058,0,0,0-.078.393c0,.213.05.213.05.346h.453c1.059,0,2.7-.133,4.072-.133.4,0,2.141.076,3.018.076h.869a.638.638,0,0,0,.107-.341m-13.067-4.866a4.9,4.9,0,0,0-2.987-4.652,14.785,14.785,0,0,0-2.935-1.061,19.168,19.168,0,0,1-3.835-1.454,3.169,3.169,0,0,1-1.561-2.881c0-1.691,1.722-3.094,3.729-3.094a4.435,4.435,0,0,1,3.624,1.848,13.49,13.49,0,0,1,1.639,3.018,1.048,1.048,0,0,0,.265.052.863.863,0,0,0,.583-.265,20.749,20.749,0,0,1-.211-2.378,13.8,13.8,0,0,1,.239-2.065.815.815,0,0,0-.8-.37,5.883,5.883,0,0,0-1.033.952,6.608,6.608,0,0,0-4.494-1.639c-3.252,0-5.579,2.17-5.579,5.051a5.3,5.3,0,0,0,.976,2.909,5.777,5.777,0,0,0,2.568,1.933c.765.313,4.2,1.35,4.678,1.535,2.115.82,2.911,1.53,2.911,3.406a4.125,4.125,0,0,1-1.166,2.672,3.685,3.685,0,0,1-2.935,1.246,5.935,5.935,0,0,1-4.444-1.957,12.6,12.6,0,0,1-1.8-3.572.909.909,0,0,0-.369-.052.937.937,0,0,0-.5.156c0,.346.107,2.089.107,2.62a11.044,11.044,0,0,1-.291,2.355,1.009,1.009,0,0,0,.848.531,3.726,3.726,0,0,1,1.322-.848,1.232,1.232,0,0,1,.63.237,7.634,7.634,0,0,0,4.42,1.322c3.729,0,6.4-1.876,6.4-5.553m-23.4-9.125a4.278,4.278,0,0,1-2.907,3.942,14.246,14.246,0,0,1-2.752.213,16.012,16.012,0,0,1-1.613-.057l-.026-2.326v-5c0-.346.081-.53.185-.606a8.55,8.55,0,0,1,1.85-.161c2.485,0,3.624.237,4.524,1.535a4.163,4.163,0,0,1,.739,2.459m5.552,14.014a.7.7,0,0,0-.13-.393,4.06,4.06,0,0,1-1.748-.346,5.937,5.937,0,0,1-.448-.658,33.853,33.853,0,0,0-1.111-3.307,9.868,9.868,0,0,0-1.957-3.146,7.059,7.059,0,0,0-1.9-.872c-.422-.161-.767-.294-1.085-.426a10.451,10.451,0,0,1,1.085-.156,4.846,4.846,0,0,0,2.8-.981,4.2,4.2,0,0,0,1.743-3.411,5.04,5.04,0,0,0-3.3-4.785,13,13,0,0,0-3.174-.289c-1.983,0-3.466.18-4.788.18-.393,0-1.691-.052-2.615-.052-.4,0-1.4-.052-1.561-.052-.078.185-.132.242-.132.346a1.7,1.7,0,0,0,.054.369c.448.052,1.267.156,1.691.237a3.091,3.091,0,0,1,1.111,1.431c.13.843.159,3.226.159,6.955,0,2.7.026,6.083-.109,7.088a2,2,0,0,1-1.083,1.767,14.9,14.9,0,0,1-1.507.189.682.682,0,0,0-.135.37,1.066,1.066,0,0,0,.109.317c.369,0,3.411-.081,4.257-.081,1.694,0,2.115.081,3.622.081a.647.647,0,0,0,.109-.294.754.754,0,0,0-.109-.393c-.526-.052-1.189-.213-1.48-.265a1.983,1.983,0,0,1-1.135-1.881l-.028-6.609c.213-.028.978-.028,1.189-.028a4.9,4.9,0,0,1,2.115.374,5.926,5.926,0,0,1,2.594,2.141,16.609,16.609,0,0,1,1.668,5.761c.076.559.289,1.033.791,1.085a9.6,9.6,0,0,0,1.535.081h2.748a.449.449,0,0,0,.159-.346m-22.189-4.017a6.938,6.938,0,0,0-.024-.767.59.59,0,0,0-.4-.081.737.737,0,0,0-.343.057,7,7,0,0,1-2.724,4.046,4.98,4.98,0,0,1-2.246.289h-2.963a12.386,12.386,0,0,1-1.746-.133c-.4-.076-.82-.715-1-1.137a3.429,3.429,0,0,1-.294-1.824V50.212h.848a5.216,5.216,0,0,1,2.246.374,3.179,3.179,0,0,1,1.428,1.132,9.057,9.057,0,0,1,.372,2.2.657.657,0,0,0,.422.1.613.613,0,0,0,.424-.133c0-.71-.159-2.644-.159-3.7,0-1.322.185-2.937.263-3.89a.685.685,0,0,0-.422-.1.794.794,0,0,0-.424.076c-.078.374-.291,1.483-.341,1.563a3.85,3.85,0,0,1-2.037,1.4,8.421,8.421,0,0,1-2.17.213h-.422v-2.6c0-2.535.052-3.567.076-4.046.028-.318.081-.659.109-.9.237-.028,1-.052,2.222-.052,1.53,0,2.67.024,2.909.024a2.984,2.984,0,0,1,1.691.531,6.73,6.73,0,0,1,2.355,3.278.73.73,0,0,0,.318.052c.156,0,.185-.052.393-.156,0-1.616-.1-3.439-.156-4.1-.028-.265-.081-.341-.609-.341-.211,0-1.215-.052-2.272-.052-1.511,0-2.118.024-4.42.024-1.241,0-3.435.028-4.52.028-1.587,0-1.933-.052-2.622-.052h-.9a.535.535,0,0,0-.135.313.634.634,0,0,0,.135.374,13.392,13.392,0,0,1,1.94.289c.369.317.713.4.952,1.668.052.554.081,2.355.081,3.572v5.444c0,1.109-.028,2.937-.055,3.6a7.993,7.993,0,0,1-.583,2.568,6.987,6.987,0,0,1-2.39.393.881.881,0,0,0-.135.426.631.631,0,0,0,.135.369h.879c.85,0,2.968-.081,3.679-.081.663,0,1.561.052,3.1.052.846,0,3.331.161,8.675.161a2.237,2.237,0,0,0,.713-.052.8.8,0,0,0,.107-.422c.05-.531.05-1.829.05-3.97M146.975,41.357c0-.109-.028-.265-.133-.294h-.9c-.635,0-1.639.052-2.089.052-2.141,0-2.909-.133-3.226-.133h-.474c-.057.133-.138.213-.138.346,0,.1.057.185.057.289a9.854,9.854,0,0,1,1.824.4,2.486,2.486,0,0,1,.663,1.668,10.027,10.027,0,0,1-.64,2.407l-4.254,10.47-5.226-13.251a1.985,1.985,0,0,1,.868-1.478,11.593,11.593,0,0,1,1.714-.213.967.967,0,0,0,.1-.369c0-.1-.024-.265-.133-.289h-.663c-.81,0-2.051.1-3.454.1-.606,0-1.8-.052-2.961-.052h-1.03a.545.545,0,0,0-.1.318.572.572,0,0,0,.078.317,9.182,9.182,0,0,1,2.222.9,47.228,47.228,0,0,1,2.17,4.814l2.189,5.292c1.819,4.392,2.9,7.324,3.037,7.827.133.081,0,.156.237.156s.213-.047.265-.18l6.822-16.4a5.259,5.259,0,0,1,.952-1.511,4.2,4.2,0,0,1,2.113-.843,1.252,1.252,0,0,0,.109-.341m-23.158,18.43a.816.816,0,0,0-.078-.37c-.4-.028-1.481-.133-1.959-.237a4.22,4.22,0,0,1-.9-2.037c-.024-1.27-.05-4.15-.05-6.614V43.816a2.1,2.1,0,0,1,.476-1.431,4.5,4.5,0,0,1,2.352-.687.783.783,0,0,0,.081-.341.433.433,0,0,0-.135-.318h-.765c-1.111,0-2.7.128-3.6.128-.552,0-2.141-.076-3.3-.1h-.583a.374.374,0,0,0-.133.341,1.839,1.839,0,0,0,.052.346,5.683,5.683,0,0,1,2.061.37,2.912,2.912,0,0,1,.877,2.25c.024.5.052,1.852.078,4.283.026,1.322.055,3.122.055,4.652,0,.772-.055,2.753-.081,3.676a4.437,4.437,0,0,1-.372,1.587c-.315.265-.632.739-2.563.876a1.015,1.015,0,0,0-.081.393c0,.213.054.213.054.346h.448c1.059,0,2.7-.133,4.072-.133.4,0,2.141.076,3.016.076h.874a.613.613,0,0,0,.1-.341M111.864,41.3a.423.423,0,0,0-.081-.261h-.606c-1.322,0-1.9.052-4.283.052-.822,0-2.037-.052-2.326-.052h-.692c-.076.052-.1.237-.1.341a.336.336,0,0,0,.133.289,11.359,11.359,0,0,1,2.724.767,5.227,5.227,0,0,1,.767,2.7c.024.393.052.791.052,1.876v7.855a10.423,10.423,0,0,1-.052,1.137c-.45-.5-1.218-1.483-2.248-2.7l-10.1-11.792a1.746,1.746,0,0,0-.4-.346c-.211,0-.474-.024-.687-.024-1.691,0-3.172-.081-3.624-.081a.526.526,0,0,0-.076.265,1.988,1.988,0,0,0,.05.341,4.635,4.635,0,0,1,2.04.744,7.7,7.7,0,0,1,1.293,1.559,2.306,2.306,0,0,1,.109.848c0,1.374-.081,3.885-.081,5.737v5.633a11.891,11.891,0,0,1-.159,2.009,5.549,5.549,0,0,1-2.779,1.35.763.763,0,0,0-.1.318c0,.081.024.237.078.261h.5c.528,0,1.746-.076,2.542-.076,1.161,0,1.689.076,2.772.076h1.592c.1-.024.128-.237.128-.341a.5.5,0,0,0-.078-.265,5.086,5.086,0,0,1-3.172-1.639,15.539,15.539,0,0,1-.346-3.33c0-.848-.026-2.222-.026-3.781,0-2.089.026-4.975.054-5.9.159.185.4.474.58.687l12.536,14.677a.367.367,0,0,0,.32.156c.128,0,.05,0,.156-.052a4.051,4.051,0,0,0,.132-1.189c0-.767-.026-1.559-.026-1.957V45.958c0-3.307,1.561-4.235,3.385-4.311a.593.593,0,0,0,.1-.346m-24.489.133a.551.551,0,0,0-.13-.341h-.765c-.822,0-1.933.052-2.885.052-1.057,0-2.246-.052-3.016-.052h-.95a.623.623,0,0,0-.109.341.928.928,0,0,0,.081.346c.109,0,2.037.024,2.381.5a6.51,6.51,0,0,1,1.03,1.957,17.266,17.266,0,0,1,.213,2.909c0,2.246,0,3.752-.026,4.548a14.241,14.241,0,0,1-.479,3.515c-.739,2.3-2.456,3.44-5.181,3.44a7.235,7.235,0,0,1-3.1-.663,4.454,4.454,0,0,1-2.563-3.331l-.135-7.931L71.722,43.5c0-.611.765-1.166,1.028-1.483a12.538,12.538,0,0,1,2.037-.265.763.763,0,0,0,.133-.369.438.438,0,0,0-.185-.341l-1,.024c-.981.028-2.274.052-3.094.052-1.27,0-2.25-.024-3.042-.024H66.486a.446.446,0,0,0-.135.37.418.418,0,0,0,.106.317c.843.1,1.4.185,1.772.261a2.227,2.227,0,0,1,.926,1.165c.026.346.078,1.189.078,2.857V52.41a16.254,16.254,0,0,0,.265,3.544,5.22,5.22,0,0,0,2.3,3.25,8.658,8.658,0,0,0,4.839,1.27,9.1,9.1,0,0,0,4.548-1.085A5.417,5.417,0,0,0,83.8,55.874a12.116,12.116,0,0,0,.424-3.146V47.649c0-.952.052-2.142.052-2.62a5.327,5.327,0,0,1,.8-2.909,10.938,10.938,0,0,1,2.194-.37.648.648,0,0,0,.1-.317"/></svg>
